<svg width="18" height="18" viewBox="0 0 18 18" fill="none" xmlns="http://www.w3.org/2000/svg">
<path d="M4.625 16.875C4.14375 16.875 3.73192 16.7038 3.3895 16.3614C3.04709 16.019 2.87559 15.6068 2.875 15.125V3.75C2.62709 3.75 2.41942 3.666 2.252 3.498C2.08459 3.33 2.00059 3.12233 2 2.875C1.99942 2.62767 2.08342 2.42 2.252 2.252C2.42059 2.084 2.62825 2 2.875 2H6.375C6.375 1.75208 6.459 1.54442 6.627 1.377C6.795 1.20958 7.00267 1.12558 7.25 1.125H10.75C10.9979 1.125 11.2059 1.209 11.3739 1.377C11.5419 1.545 11.6256 1.75267 11.625 2H15.125C15.3729 2 15.5809 2.084 15.7489 2.252C15.9169 2.42 16.0006 2.62767 16 2.875C15.9994 3.12233 15.9154 3.33029 15.748 3.49887C15.5806 3.66746 15.3729 3.75117 15.125 3.75V15.125C15.125 15.6062 14.9538 16.0184 14.6114 16.3614C14.269 16.7044 13.8568 16.8756 13.375 16.875H4.625ZM13.375 3.75H4.625V15.125H13.375V3.75ZM7.25 13.375C7.49792 13.375 7.70588 13.291 7.87388 13.123C8.04188 12.955 8.12558 12.7473 8.125 12.5V6.375C8.125 6.12708 8.041 5.91941 7.873 5.752C7.705 5.58458 7.49733 5.50058 7.25 5.5C7.00267 5.49941 6.795 5.58341 6.627 5.752C6.459 5.92058 6.375 6.12825 6.375 6.375V12.5C6.375 12.7479 6.459 12.9559 6.627 13.1239C6.795 13.2919 7.00267 13.3756 7.25 13.375ZM10.75 13.375C10.9979 13.375 11.2059 13.291 11.3739 13.123C11.5419 12.955 11.6256 12.7473 11.625 12.5V6.375C11.625 6.12708 11.541 5.91941 11.373 5.752C11.205 5.58458 10.9973 5.50058 10.75 5.5C10.5027 5.49941 10.295 5.58341 10.127 5.752C9.959 5.92058 9.875 6.12825 9.875 6.375V12.5C9.875 12.7479 9.959 12.9559 10.127 13.1239C10.295 13.2919 10.5027 13.3756 10.75 13.375Z" fill="white"/>
</svg>
